<svg width="62" height="62" viewBox="0 0 62 62" fill="none" xmlns="http://www.w3.org/2000/svg">
<path d="M5.68586 33.2241C4.75178 32.9167 4.07422 32.0346 4.07422 30.9987V24.8531C4.07422 23.5618 5.12519 22.5109 6.41645 22.5109H10.9245L11.0803 21.9892C11.4873 20.6243 12.0404 19.2995 12.7255 18.0515L12.9896 17.571L9.78476 14.3661C9.34207 13.9245 9.09854 13.3378 9.09854 12.7144C9.09854 12.0996 9.34857 11.4978 9.78368 11.0638L14.1315 6.71595C14.5807 6.28842 15.1695 6.05355 15.7897 6.05355C16.4099 6.05355 16.9987 6.28842 17.4479 6.71595L20.6452 9.91325L21.1258 9.65024C22.3705 8.96727 23.6953 8.41526 25.0634 8.00721L25.5851 7.85135V3.34223C25.5851 2.05097 26.6361 1 27.9273 1H34.073C35.3642 1 36.4152 2.05097 36.4152 3.34223V7.85135L36.9369 8.00721C38.2996 8.4131 39.6244 8.96618 40.8745 9.65132L41.3551 9.91433L44.5535 6.71595C45.0027 6.28842 45.5915 6.05355 46.2117 6.05355C46.8318 6.05355 47.4207 6.28842 47.8698 6.71595L52.2166 11.0616C52.6582 11.5032 52.9017 12.0888 52.9017 12.7133C52.9017 13.3378 52.6582 13.9245 52.2177 14.365L49.0128 17.5699L49.2758 18.0504C49.9599 19.2984 50.513 20.6232 50.921 21.9892L51.0769 22.5109H55.5849C56.8762 22.5109 57.9271 23.5618 57.9271 24.8531V30.9987C57.9271 32.0346 57.2507 32.9167 56.3166 33.2241V32.5941C56.9205 32.316 57.3405 31.7055 57.3405 30.9987V24.8531C57.3405 23.8855 56.5536 23.0975 55.5849 23.0975H50.6201L50.5628 22.8767C50.0919 21.0464 49.3613 19.2984 48.3926 17.6792L48.2757 17.4833L51.801 13.9526C52.4796 13.2729 52.4796 12.1656 51.801 11.4859L47.438 7.11643C47.1068 6.80146 46.6727 6.6272 46.216 6.6272C45.7592 6.6272 45.3252 6.80038 44.994 7.11643L41.4503 10.6601L41.2544 10.5432C39.6331 9.57339 37.8829 8.8428 36.0504 8.37197L35.8307 8.3146V3.34223C35.8307 2.3746 35.0438 1.58664 34.0751 1.58664H27.9295C26.9618 1.58664 26.1739 2.37352 26.1739 3.34223V8.30703L25.952 8.36439C24.125 8.83414 22.3759 9.56365 20.7545 10.5334L20.5575 10.6514L17.0171 7.11751C16.6859 6.7993 16.2508 6.62395 15.7908 6.62395C15.3308 6.62395 14.8957 6.7993 14.5645 7.11751L10.2026 11.4783C9.87676 11.8031 9.68951 12.2544 9.68951 12.7155C9.68951 13.1831 9.87243 13.6225 10.2026 13.9526L13.7332 17.4833L13.6163 17.6792C12.6465 19.2995 11.917 21.0486 11.4462 22.8767L11.3888 23.0975H6.41645C5.44882 23.0975 4.66086 23.8844 4.66086 24.8531V30.9987C4.66086 31.7055 5.08082 32.3171 5.68477 32.5941L5.68586 33.2241Z" fill="black" stroke="#EE3524"/>
<path d="M44.0008 27.1991C43.6198 20.3575 37.9341 14.9067 30.9983 14.9067C24.0626 14.9067 18.3758 20.3564 17.9959 27.1991H17.4082C17.7892 20.0328 23.7389 14.3201 30.9983 14.3201C38.2577 14.3201 44.2075 20.0328 44.5885 27.1991H44.0008Z" fill="black" stroke="#EE3524"/>
<path d="M30.9999 35.3846C28.0148 35.3846 25.5859 32.9557 25.5859 29.9695C25.5859 26.9833 28.0148 24.5544 31.001 24.5544C33.9872 24.5544 36.4161 26.9833 36.4161 29.9695C36.4128 32.9514 33.9829 35.3813 30.9999 35.3846ZM30.9999 25.1411C28.3373 25.1411 26.1715 27.3069 26.1715 29.9695C26.1715 32.6321 28.3373 34.7979 30.9999 34.7979C33.6625 34.7979 35.8283 32.6321 35.8283 29.9695C35.8283 27.3069 33.6625 25.1411 30.9999 25.1411Z" fill="black" stroke="#EE3524"/>
<path d="M48.412 39.4861C45.4269 39.4861 42.998 37.0573 42.998 34.0711C42.998 31.0848 45.4269 28.656 48.4131 28.656C51.3993 28.656 53.8282 31.0848 53.8282 34.0711C53.8249 37.053 51.395 39.4829 48.412 39.4861ZM48.4131 29.2437C45.7505 29.2437 43.5847 31.4095 43.5847 34.0721C43.5847 36.7348 45.7505 38.9006 48.4131 38.9006C51.0757 38.9006 53.2415 36.7348 53.2415 34.0721C53.2415 31.4095 51.0757 29.2437 48.4131 29.2437Z" fill="black" stroke="#EE3524"/>
<path d="M13.5839 39.4861C10.5987 39.4861 8.16992 37.0573 8.16992 34.0711C8.16992 31.0848 10.5987 28.656 13.585 28.656C16.5712 28.656 19 31.0848 19 34.0711C18.9968 37.053 16.5669 39.4829 13.5839 39.4861ZM13.585 29.2437C10.9224 29.2437 8.75656 31.4095 8.75656 34.0721C8.75656 36.7348 10.9224 38.9006 13.585 38.9006C16.2476 38.9006 18.4134 36.7348 18.4134 34.0721C18.4134 31.4095 16.2476 29.2437 13.585 29.2437Z" fill="black" stroke="#EE3524"/>
<path d="M45.0467 60.9949V60.4082H54.2652V49.1408H54.8518V60.4645L55.7253 60.2913C56.1615 60.2047 56.5869 60.0651 56.9895 59.8746C59.0644 58.9254 60.4076 56.8386 60.4109 54.557V50.4581C60.4076 47.842 59.1153 45.4013 56.9538 43.9292C55.6474 43.032 54.1169 42.5568 52.5291 42.5568H44.315C44.1559 42.5568 44.012 42.5687 43.8724 42.5795C43.8269 42.5828 43.7814 42.5871 43.736 42.5904L42.7748 42.6553L43.0963 43.5634C43.4156 44.465 43.5801 45.4078 43.5845 46.3646V56.6048C43.5812 59.0228 41.6113 60.9927 39.1922 60.9959H36.8511V46.068H37.4377V60.4082H39.1933C41.2909 60.4082 42.9967 58.7013 42.9967 56.6048V46.3613C42.9967 45.0733 42.6763 43.7918 42.0702 42.6531C41.4695 41.5318 40.5993 40.5609 39.5527 39.8412C39.439 39.7578 39.3199 39.681 39.1966 39.6128C37.9605 38.8595 36.5437 38.4612 35.0966 38.4601H26.902C22.5455 38.4601 19.0008 42.0048 19.0008 46.3613V56.6048C19.0008 58.7024 20.7076 60.4082 22.8042 60.4082H24.5598V46.068H25.1464V60.9959H22.8042C20.3862 60.9927 18.4163 59.0228 18.413 56.6048V46.3624C18.4174 45.4099 18.5819 44.4672 18.9012 43.5645L19.2237 42.6564L18.2626 42.5914C18.2171 42.5882 18.1728 42.585 18.1273 42.5817C17.9942 42.5709 17.8426 42.559 17.6824 42.559H9.4684C7.88166 42.559 6.3512 43.0331 5.04479 43.9303C2.88331 45.4013 1.58989 47.842 1.58664 50.4591V54.557C1.59097 56.8321 2.92877 58.9167 4.99283 59.8692C5.39655 60.0608 5.82842 60.2036 6.2711 60.2924L7.14565 60.4677V49.1419H7.73229V60.4093H16.9508V60.9959H7.39892C6.48974 60.9959 5.57406 60.7914 4.75147 60.4039C2.47309 59.3529 1.00325 57.0583 1 54.5559V50.4591C1.00108 47.6493 2.38975 45.0268 4.71358 43.4465C6.11957 42.481 7.76043 41.9713 9.46299 41.9713H17.6835C18.1349 41.9756 18.596 42.0167 19.0484 42.0957L19.529 42.1791L19.7898 41.7678C21.3365 39.3303 23.9829 37.8745 26.8695 37.8745H35.1096C36.6476 37.8745 38.1553 38.2956 39.4704 39.0911L39.4834 39.0987L39.4964 39.1062C39.6284 39.1788 39.7583 39.2632 39.8817 39.3574L39.8936 39.366L39.9055 39.3747C40.832 40.0165 41.6081 40.8229 42.2142 41.771L42.4761 42.1801L42.9556 42.0968C43.4069 42.0189 43.867 41.9767 44.3237 41.9723H52.5378C54.2403 41.9723 55.8823 42.4821 57.2872 43.4476C59.6121 45.0311 60.9986 47.6515 61.0007 50.4613V54.558C60.9975 57.067 59.5201 59.3648 57.2384 60.4104C56.4159 60.7957 55.5067 60.9981 54.604 60.9981H45.0489L45.0467 60.9949Z" fill="black" stroke="#EE3524"/>
<path d="M34.3651 60.4133H27.6328V61H34.3651V60.4133Z" fill="black" stroke="#EE3524"/>
</svg>
