<svg width="60" height="62" viewBox="0 0 60 62" fill="none" xmlns="http://www.w3.org/2000/svg">
<path d="M14.7699 60.9999C14.1223 60.9999 13.5159 60.7489 13.0606 60.2936L1.70958 48.9415C1.2521 48.484 1 47.8766 1 47.2311C1 46.5856 1.2521 45.9782 1.70958 45.5207L5.10967 42.1206C5.56171 41.6686 6.16371 41.4198 6.80483 41.4198C7.24057 41.4198 7.6687 41.536 8.04359 41.7566L8.40653 41.9707L16.1706 35.4845C16.9095 34.8673 17.669 34.3957 18.4275 34.0828C19.8869 33.4797 21.4755 33.1743 23.1479 33.1743C25.4146 33.1743 27.3912 33.7307 28.6517 34.198C29.5906 34.5457 30.5881 34.7228 31.6182 34.7228H39.2269C40.8079 34.7228 42.2499 35.4574 43.1833 36.7363L43.5756 37.2753L51.256 30.2763C52.209 29.4081 53.4532 28.9299 54.7593 28.9299C55.9676 28.9299 57.1401 29.3472 58.0616 30.1057C58.5745 30.5284 58.8744 31.1282 58.9059 31.7932C58.9374 32.4582 58.6962 33.082 58.2268 33.5514L46.0662 45.712C44.7709 47.0073 42.4575 47.9852 39.1878 48.6187C35.9289 49.2501 32.5071 49.3827 30.2099 49.3827C29.0223 49.3827 27.8367 49.3457 26.7816 49.2772C26.6143 49.2664 26.4426 49.2599 26.2731 49.2599C24.165 49.2599 22.1482 50.1161 20.5932 51.6711L19.3381 52.9262L19.8804 53.4684C20.3367 53.9248 20.5878 54.5322 20.5878 55.1788C20.5878 55.8253 20.3367 56.4328 19.8804 56.8892L16.4803 60.2903C16.0239 60.7456 15.4164 60.9967 14.7688 60.9967L14.7699 60.9999ZM2.14749 48.3666L13.5659 59.7872C13.8875 60.1078 14.3157 60.2838 14.7699 60.2838C15.2241 60.2838 15.6522 60.1078 15.9739 59.7861L19.374 56.386C20.0347 55.7232 20.0357 54.6452 19.3772 53.9824C19.3153 53.9205 8.36959 42.9737 8.02295 42.6281C7.70022 42.3065 7.27317 42.1293 6.81895 42.1293C6.36474 42.1293 5.93769 42.3065 5.61604 42.627L2.21595 46.0271C1.89322 46.3509 1.7161 46.7791 1.71718 47.2344C1.71718 47.6527 1.86822 48.0472 2.14314 48.3569L2.14749 48.3656V48.3666ZM18.8296 52.4231L20.0857 51.1669C21.7505 49.5022 24.0172 48.5481 26.3046 48.5481C26.4795 48.5481 26.6556 48.5535 26.8294 48.5644C27.8193 48.6285 28.9657 48.6633 30.1426 48.6633C33.7394 48.6633 42.4401 48.3264 45.5587 45.2078L57.7193 33.0472C58.0409 32.7245 58.2126 32.28 58.1909 31.8269C58.1681 31.3749 57.9551 30.9511 57.6041 30.6631C56.8087 30.0079 55.796 29.646 54.756 29.646C53.6314 29.646 52.5599 30.0589 51.7374 30.8098L43.8505 37.9958L43.944 38.3467C44.0548 38.7629 44.1102 39.1954 44.107 39.6344C44.0972 40.9536 43.0073 42.0272 41.6772 42.0272H24.5768C24.379 42.0272 24.2182 41.8664 24.2182 41.6686C24.2182 41.4708 24.379 41.31 24.5768 41.31H41.6783C42.6161 41.31 43.3854 40.5559 43.3909 39.629C43.3996 38.5152 42.9714 37.4644 42.1836 36.6711C41.3969 35.8779 40.3472 35.4422 39.2258 35.4422H31.6171C30.5023 35.4422 29.42 35.2509 28.4007 34.8728C27.1967 34.4262 25.3092 33.8937 23.1522 33.8937C21.5723 33.8937 20.0738 34.1817 18.7014 34.7478C18.0113 35.0325 17.3137 35.4661 16.6302 36.0376L8.9379 42.4629L9.41711 42.9454C9.60401 43.1334 18.8296 52.4252 18.8296 52.4252V52.4231Z" fill="#EE3524" stroke="#EE3524" stroke-width="0.6"/>
<path d="M33.206 27.3036C32.4192 27.3036 31.6401 26.9364 31.1218 26.3202C30.6046 25.7063 30.3959 24.9272 30.5328 24.1241L31.0381 21.1761C31.149 20.5274 30.9349 19.8656 30.4633 19.407L28.3313 17.3337C27.5739 16.5981 27.3164 15.5582 27.6424 14.5519C27.9684 13.5468 28.7866 12.8557 29.8309 12.7036L32.7789 12.2733C33.4276 12.1787 33.9883 11.7712 34.2796 11.1844L35.6074 8.50153C36.0747 7.55615 36.9842 6.99219 38.0404 6.99219C39.0966 6.99219 40.0062 7.55833 40.4734 8.50588L41.7926 11.1812C42.0816 11.7701 42.6434 12.1787 43.2943 12.2743L46.2478 12.7046C47.2921 12.8568 48.1103 13.5468 48.4363 14.5519C48.7623 15.556 48.5058 16.5959 47.7506 17.3326L45.6208 19.4092C45.1514 19.8667 44.9373 20.5263 45.046 21.1728L45.548 24.1285C45.6838 24.9304 45.4752 25.7095 44.958 26.3213C44.4386 26.9364 43.6594 27.3036 42.8727 27.3036C42.4359 27.3036 42.0088 27.195 41.6057 26.982L38.976 25.5922C38.6892 25.4411 38.3675 25.3618 38.0437 25.3618C37.7199 25.3618 37.3993 25.4411 37.1124 25.5911L34.4719 26.9831C34.0677 27.1961 33.6417 27.3036 33.2049 27.3036H33.206ZM38.0393 7.70828C37.2743 7.70828 36.5887 8.13424 36.2496 8.81883L34.9218 11.5017C34.5262 12.3004 33.7634 12.8546 32.8821 12.9817L29.9341 13.4121C29.1745 13.524 28.5562 14.0456 28.3204 14.7736C28.0846 15.5006 28.2802 16.284 28.829 16.8198L30.9599 18.8941C31.601 19.5168 31.8944 20.4154 31.7434 21.2978L31.2381 24.2458C31.1381 24.8283 31.2967 25.4194 31.6727 25.8671C32.0563 26.3224 32.6137 26.5832 33.2027 26.5832C33.5276 26.5832 33.8417 26.5039 34.1372 26.3485L36.7767 24.9576C37.1657 24.7522 37.6025 24.6436 38.0415 24.6436C38.4805 24.6436 38.9195 24.7522 39.3085 24.9587L41.9393 26.3485C42.2359 26.5039 42.55 26.5821 42.8738 26.5821C43.4628 26.5821 44.0202 26.3213 44.4038 25.8671C44.7863 25.4151 44.9406 24.8402 44.8406 24.248L44.3397 21.2924C44.1908 20.4144 44.482 19.5179 45.121 18.8963L47.2497 16.8198C47.7974 16.2851 47.9919 15.5017 47.7571 14.7758C47.5213 14.0477 46.903 13.5261 46.1446 13.4142L43.1911 12.9839C42.3066 12.8546 41.5427 12.2993 41.1493 11.4996L39.8301 8.82426C39.4911 8.13642 38.8043 7.70828 38.0393 7.70828Z" fill="#EE3524" stroke="#EE3524" stroke-width="0.6"/>
<path d="M38.0383 3.09395C37.8405 3.09395 37.6797 2.93313 37.6797 2.73536V1.35859C37.6797 1.16082 37.8405 1 38.0383 1C38.236 1 38.3969 1.16082 38.3969 1.35859V2.73536C38.3969 2.93313 38.236 3.09395 38.0383 3.09395Z" fill="#EE3524" stroke="#EE3524" stroke-width="0.6"/>
<path d="M30.8351 5.0275C30.7047 5.0275 30.5884 4.96013 30.5243 4.84929L29.8354 3.65616C29.7876 3.57358 29.7746 3.47687 29.7995 3.38341C29.8245 3.29105 29.8832 3.2139 29.9669 3.16609C30.0234 3.13349 30.0821 3.11719 30.1451 3.11719C30.2733 3.11719 30.3918 3.18565 30.4559 3.29648L31.1448 4.48961C31.1926 4.5722 31.2057 4.66891 31.1807 4.76127C31.1557 4.85364 31.097 4.93079 31.0133 4.9786C30.959 5.01011 30.8981 5.02641 30.8351 5.02641V5.0275Z" fill="#EE3524" stroke="#EE3524" stroke-width="0.6"/>
<path d="M25.5568 10.3035C25.4938 10.3035 25.4341 10.2872 25.3786 10.2556L24.1866 9.56781C24.016 9.46892 23.9573 9.24942 24.0551 9.07773C24.1192 8.9669 24.2377 8.89844 24.3659 8.89844C24.4289 8.89844 24.4887 8.91474 24.5441 8.94734L25.7372 9.63518C25.9078 9.73406 25.9665 9.95356 25.8687 10.1253C25.8046 10.235 25.6851 10.3035 25.5568 10.3035Z" fill="#EE3524" stroke="#EE3524" stroke-width="0.6"/>
<path d="M22.2531 17.5062C22.0554 17.5062 21.8945 17.3454 21.8945 17.1477C21.8945 16.9499 22.0554 16.7891 22.2531 16.7891H23.6299C23.8277 16.7891 23.9885 16.9499 23.9885 17.1477C23.9885 17.3454 23.8277 17.5062 23.6299 17.5062H22.2531Z" fill="#EE3524" stroke="#EE3524" stroke-width="0.6"/>
<path d="M52.4504 17.5062C52.2526 17.5062 52.0918 17.3454 52.0918 17.1477C52.0918 16.9499 52.2526 16.7891 52.4504 16.7891H53.8272C54.0249 16.7891 54.1858 16.9499 54.1858 17.1477C54.1858 17.3454 54.0249 17.5062 53.8272 17.5062H52.4504Z" fill="#EE3524" stroke="#EE3524" stroke-width="0.6"/>
<path d="M50.5212 10.3045C50.3908 10.3045 50.2746 10.2372 50.2094 10.1242C50.1116 9.95356 50.1703 9.73406 50.3419 9.63518L51.534 8.94734C51.5894 8.91474 51.6492 8.89844 51.7122 8.89844C51.8404 8.89844 51.9599 8.96798 52.0251 9.07882C52.1229 9.24834 52.0643 9.46892 51.8926 9.56781L50.7005 10.2556C50.6451 10.2872 50.5854 10.3035 50.5223 10.3035L50.5212 10.3045Z" fill="#EE3524" stroke="#EE3524" stroke-width="0.6"/>
<path d="M45.2447 5.02641C45.1817 5.02641 45.1219 5.01011 45.0665 4.9786C44.9839 4.93079 44.9241 4.85364 44.8992 4.76127C44.8742 4.66891 44.8872 4.5722 44.935 4.48961L45.6239 3.29757C45.6891 3.18456 45.8043 3.11719 45.9336 3.11719C45.9967 3.11719 46.0564 3.13349 46.1118 3.16609C46.2835 3.26497 46.3422 3.48556 46.2433 3.65616L45.5544 4.8482C45.4892 4.96013 45.3729 5.0275 45.2436 5.0275L45.2447 5.02641Z" fill="#EE3524" stroke="#EE3524" stroke-width="0.6"/>
</svg>
