<svg width="78" height="57" viewBox="0 0 78 57" fill="none" xmlns="http://www.w3.org/2000/svg">
<path d="M45.3241 49.8008C44.719 49.8008 44.2268 50.293 44.2268 50.8981L44.2227 54.9039C44.2227 55.2009 44.3356 55.4769 44.5419 55.6833C44.7483 55.8896 45.0243 56.0026 45.3199 56.0026H61.617C62.2221 56.0026 62.7142 55.5104 62.7142 54.9053L62.7184 50.8995C62.7184 50.6025 62.6055 50.3264 62.3991 50.1201C62.1928 49.9137 61.9167 49.8008 61.6212 49.8008H45.3227H45.3241Z" stroke="#EE3524" stroke-width="1.5"/>
<path d="M64.0288 27.7057C63.4432 27.7057 62.8827 27.8855 62.4087 28.2271L56.5418 32.4421C56.4958 32.4755 56.4428 32.5006 56.387 32.516C51.0416 33.9828 50.2901 36.1857 49.3281 40.2766C48.6547 43.1391 47.9269 46.035 47.2242 48.8375L47.0137 49.6629H59.1476L59.7457 47.1504C60.0413 45.9053 60.7273 44.9056 61.7813 44.182L68.3857 39.6422C70.2038 38.3929 71.0947 35.6587 71.8099 33.4613L71.9675 32.9817L76.811 18.2789C77.437 16.3799 76.2491 14.2145 74.8493 13.6889C74.6067 13.5983 74.3544 13.5522 74.1006 13.5522C72.6283 13.5522 71.177 15.0664 70.0128 17.8146L66.01 27.2623L66.3892 27.5662C66.6541 27.7782 66.8911 28.0278 67.0905 28.3066C67.6747 29.1195 67.9075 30.1136 67.7444 31.1063C67.5813 32.0977 67.0445 32.9663 66.2302 33.5505L58.4324 39.1514C58.3501 39.2113 58.2525 39.242 58.1521 39.242C57.9946 39.242 57.8524 39.1695 57.7603 39.0412C57.6851 38.9367 57.6558 38.8098 57.6753 38.6815C57.6962 38.5546 57.7645 38.4431 57.8691 38.3678L65.667 32.7655C66.2721 32.3305 66.6722 31.685 66.7935 30.9488C66.9148 30.2126 66.7419 29.4722 66.3069 28.8671C65.8733 28.2648 65.2278 27.8646 64.4889 27.7433C64.3369 27.7182 64.1821 27.7057 64.0288 27.7057Z" stroke="#EE3524" stroke-width="1.5"/>
<path d="M32.6544 49.8008C33.2595 49.8008 33.7517 50.293 33.7517 50.8981L33.7559 54.9039C33.7559 55.2009 33.6429 55.4769 33.4366 55.6833C33.2302 55.8896 32.9542 56.0026 32.6586 56.0026H16.3615C15.7564 56.0026 15.2643 55.5104 15.2643 54.9053L15.2601 50.8995C15.2601 50.6025 15.373 50.3264 15.5794 50.1201C15.7857 49.9137 16.0618 49.8008 16.3573 49.8008H32.6558H32.6544Z" stroke="#EE3524" stroke-width="1.5"/>
<path d="M13.9536 27.7057C14.5392 27.7057 15.0997 27.8855 15.5737 28.2271L21.4406 32.4421C21.4866 32.4755 21.5396 32.5006 21.5954 32.516C26.9408 33.9828 27.6923 36.1857 28.6543 40.2766C29.3277 43.1391 30.0555 46.035 30.7582 48.8375L30.9688 49.6629H18.8348L18.2367 47.1504C17.9411 45.9053 17.2552 44.9056 16.2011 44.182L9.5967 39.6422C7.77863 38.3929 6.88772 35.6587 6.17249 33.4613L6.01494 32.9817L1.17141 18.2789C0.545403 16.3799 1.73328 14.2145 3.13308 13.6889C3.37567 13.5983 3.62803 13.5522 3.88178 13.5522C5.35408 13.5522 6.80547 15.0664 7.96964 17.8146L11.9725 27.2623L11.5932 27.5662C11.3283 27.7782 11.0913 28.0278 10.8919 28.3066C10.3078 29.1195 10.0749 30.1136 10.238 31.1063C10.4012 32.0977 10.9379 32.9663 11.7522 33.5505L19.5501 39.1514C19.6323 39.2113 19.7299 39.242 19.8303 39.242C19.9878 39.242 20.1301 39.1695 20.2221 39.0412C20.2974 38.9367 20.3266 38.8098 20.3071 38.6815C20.2862 38.5546 20.2179 38.4431 20.1133 38.3678L12.3154 32.7655C11.7103 32.3305 11.3102 31.685 11.1889 30.9488C11.0676 30.2126 11.2405 29.4722 11.6755 28.8671C12.1091 28.2648 12.7546 27.8646 13.4936 27.7433C13.6455 27.7182 13.8003 27.7057 13.9536 27.7057Z" stroke="#EE3524" stroke-width="1.5"/>
<path d="M39.3435 34.6291L33.3355 29.2782C31.0825 27.2443 29.1502 25.4293 27.5387 23.8335C25.9271 22.2376 24.5972 20.7356 23.549 19.3274C22.5007 17.9193 21.734 16.5581 21.249 15.2439C20.764 13.9296 20.5215 12.5528 20.5215 11.1133C20.5215 8.17191 21.5072 5.72333 23.4786 3.76759C25.4499 1.81185 27.9063 0.833984 30.8478 0.833984C32.475 0.833984 34.0239 1.17819 35.4946 1.86661C36.9653 2.55503 38.2483 3.52508 39.3435 4.77675C40.4387 3.52508 41.7217 2.55503 43.1924 1.86661C44.6631 1.17819 46.2121 0.833984 47.8392 0.833984C50.7807 0.833984 53.2371 1.81185 55.2084 3.76759C57.1798 5.72333 58.1655 8.17191 58.1655 11.1133C58.1655 12.5528 57.923 13.9296 57.438 15.2439C56.953 16.5581 56.1863 17.9193 55.138 19.3274C54.0898 20.7356 52.7599 22.2376 51.1483 23.8335C49.5368 25.4293 47.6045 27.2443 45.3515 29.2782L39.3435 34.6291Z" stroke="#EE3524" stroke-width="1.5"/>
</svg>
