<svg width="60" height="60" viewBox="0 0 60 60" fill="none" xmlns="http://www.w3.org/2000/svg">
<g clip-path="url(#clip0_3247_669)">
<path d="M43.6172 12.3984C50.2463 16.6392 54.7784 23.8742 55.2793 32.2043" stroke="#EE3524" stroke-width="1.5" stroke-linecap="round" stroke-linejoin="round"/>
<path d="M4.67188 32.2011C5.17285 23.9642 9.61168 16.7875 16.136 12.5234" stroke="#EE3524" stroke-width="1.5" stroke-linecap="round" stroke-linejoin="round"/>
<path d="M41.4989 56.3672C38.0387 58.1381 34.1241 59.1284 29.9765 59.1284C25.829 59.1284 22.0542 58.173 18.6406 56.4604" stroke="#EE3524" stroke-width="1.5" stroke-linecap="round" stroke-linejoin="round"/>
<path d="M29.883 15.4847C33.9173 15.4847 37.1878 12.2142 37.1878 8.17985C37.1878 4.14549 33.9173 0.875 29.883 0.875C25.8486 0.875 22.5781 4.14549 22.5781 8.17985C22.5781 12.2142 25.8486 15.4847 29.883 15.4847Z" stroke="#EE3524" stroke-width="1.5" stroke-linecap="round" stroke-linejoin="round"/>
<path d="M8.17985 53.4066C12.2142 53.4066 15.4847 50.1361 15.4847 46.1017C15.4847 42.0674 12.2142 38.7969 8.17985 38.7969C4.14549 38.7969 0.875 42.0674 0.875 46.1017C0.875 50.1361 4.14549 53.4066 8.17985 53.4066Z" stroke="#EE3524" stroke-width="1.5" stroke-linecap="round" stroke-linejoin="round"/>
<path d="M51.7189 53.4066C55.7533 53.4066 59.0238 50.1361 59.0238 46.1017C59.0238 42.0674 55.7533 38.7969 51.7189 38.7969C47.6846 38.7969 44.4141 42.0674 44.4141 46.1017C44.4141 50.1361 47.6846 53.4066 51.7189 53.4066Z" stroke="#EE3524" stroke-width="1.5" stroke-linecap="round" stroke-linejoin="round"/>
</g>
<defs>
<clipPath id="clip0_3247_669">
<rect width="59.8951" height="60" fill="white"/>
</clipPath>
</defs>
</svg>
