<svg width="60" height="60" viewBox="0 0 60 60" fill="none" xmlns="http://www.w3.org/2000/svg">
<g clip-path="url(#clip0_3247_650)">
<path d="M25.9962 2.93714C26.9165 1.64393 28.4074 0.875 29.9916 0.875C31.5757 0.875 33.0667 1.64393 33.9869 2.93714C35.3498 4.85947 37.8891 5.61675 40.0207 4.63811C41.4651 3.97403 43.1424 4.05558 44.5169 4.84782C45.8914 5.64005 46.8 7.04976 46.9514 8.63422C47.1727 10.976 49.1529 12.84 51.4942 13.0614C53.0784 13.2129 54.4878 14.1216 55.2799 15.4964C56.072 16.8711 56.1535 18.6653 55.4895 20.11C54.5111 22.2536 55.1401 24.7818 57.0621 26.1449C58.355 27.0653 59.1238 28.5566 59.1238 30.141C59.1238 31.7255 58.355 33.2167 57.0621 34.1371C55.1401 35.5002 54.5111 38.04 55.4895 40.1721C56.1535 41.6167 56.072 43.2944 55.2799 44.6692C54.4878 46.0439 53.0784 46.9527 51.4942 47.1041C49.1529 47.3255 47.1727 49.3061 46.9514 51.6478C46.8 53.2323 45.8914 54.642 44.5169 55.4342C43.1424 56.2265 41.4651 56.308 40.0207 55.6439C37.8774 54.6653 35.3498 55.1546 33.9869 57.0769C33.0667 58.3702 31.5757 59.1391 29.9916 59.1391C28.4074 59.1391 26.9165 58.3702 25.9962 57.0769C24.6334 55.1546 22.0941 54.6653 19.9625 55.6439C18.5181 56.308 16.8407 56.2265 15.4662 55.4342C14.0918 54.642 13.1832 53.2323 13.0318 51.6478C12.8105 49.3061 10.8303 47.3255 8.48896 47.1041C6.9048 46.9527 5.49537 46.0439 4.70329 44.6692C3.91121 43.2944 3.82967 41.6167 4.49362 40.1721C5.47207 38.0284 4.84307 35.5002 2.92111 34.1371C1.62816 33.2167 0.859375 31.7255 0.859375 30.141C0.859375 28.5566 1.62816 27.0653 2.92111 26.1449C4.84307 24.7818 5.47207 22.242 4.49362 20.11C3.82967 18.6653 3.91121 16.8711 4.70329 15.4964C5.49537 14.1216 6.9048 13.2129 8.48896 13.0614C10.8303 12.84 12.8105 10.9876 13.0318 8.63422C13.1832 7.04976 14.0918 5.64005 15.4662 4.84782C16.8407 4.05558 18.5181 3.97403 19.9625 4.63811C22.1057 5.61675 24.6334 4.85947 25.9962 2.93714Z" stroke="#EE3524" stroke-width="1.5" stroke-linecap="round" stroke-linejoin="round"/>
<path d="M22.75 29.9981L28.1897 35.4389L36.6114 27.0156" stroke="#EE3524" stroke-width="1.5" stroke-linecap="round" stroke-linejoin="round"/>
<path d="M48.1165 30.0025C48.1165 40.0102 39.9976 48.1306 29.9918 48.1306C19.986 48.1306 11.8672 40.0102 11.8672 30.0025C11.8672 19.9947 19.986 11.7578 29.9918 11.7578C39.9976 11.7578 48.1165 19.9947 48.1165 30.0025Z" stroke="#EE3524" stroke-width="1.5" stroke-linecap="round" stroke-linejoin="round"/>
</g>
<defs>
<clipPath id="clip0_3247_650">
<rect width="60" height="60" fill="white"/>
</clipPath>
</defs>
</svg>
