<svg width="50" height="60" viewBox="0 0 50 60" fill="none" xmlns="http://www.w3.org/2000/svg">
<g clip-path="url(#clip0_3247_658)">
<path d="M24.4072 9.91406C17.8829 9.91406 12.5703 15.2267 12.5703 21.751C12.5703 28.2752 17.8829 33.5878 24.4072 33.5878C30.9315 33.5878 36.2441 28.2752 36.2441 21.751C36.2441 15.2267 30.9315 9.91406 24.4072 9.91406Z" stroke="#EE3524" stroke-width="1.5" stroke-linecap="round" stroke-linejoin="round"/>
<path d="M9.93908 35.8516L0.875 51.6496L10.1255 50.7875L13.9119 59.1292L24.4789 40.9195" stroke="#EE3524" stroke-width="1.5" stroke-linecap="round" stroke-linejoin="round"/>
<path d="M39.3682 35.8516L48.4672 51.6496L39.2284 50.7875L35.4303 59.1292L24.875 40.9195" stroke="#EE3524" stroke-width="1.5" stroke-linecap="round" stroke-linejoin="round"/>
<path d="M41.7934 26.8744C41.5487 27.1191 41.4439 27.4686 41.4905 27.8181L42.341 33.7948C42.4225 34.4006 42.0147 34.9599 41.4206 35.0647L35.4672 36.1133C35.1293 36.1715 34.8264 36.3929 34.6633 36.6958L31.8322 42.0317C31.541 42.5676 30.8885 42.789 30.341 42.521L24.9118 39.8647C24.5973 39.7133 24.2361 39.7133 23.9215 39.8647L18.4924 42.521C17.9448 42.789 17.2808 42.5793 17.0012 42.0317L14.1701 36.6958C14.007 36.3929 13.7157 36.1715 13.3662 36.1133L7.4128 35.0647C6.81863 34.9599 6.39921 34.4006 6.49241 33.7948L7.3429 27.8181C7.3895 27.4686 7.273 27.1307 7.03999 26.8744L2.84581 22.5405C2.4264 22.0977 2.4264 21.4104 2.84581 20.9676L7.03999 16.622C7.28465 16.3773 7.40115 16.0278 7.3429 15.6783L6.49241 9.70162C6.41086 9.0958 6.81863 8.53657 7.4128 8.43172L13.3662 7.38317C13.7041 7.32492 14.007 7.10356 14.1701 6.80065L17.0012 1.46473C17.2808 0.928805 17.9448 0.707446 18.4924 0.975407L23.9215 3.63172C24.2361 3.78317 24.5973 3.78317 24.9118 3.63172L30.3293 0.975407C30.8769 0.707446 31.541 0.917155 31.8206 1.46473L34.6516 6.80065C34.8147 7.10356 35.106 7.32492 35.4555 7.38317L41.3973 8.42007C42.0031 8.52492 42.4109 9.08414 42.3177 9.68997L41.4672 15.6667C41.4206 16.0162 41.5371 16.354 41.7701 16.6104L45.9643 20.956C46.3837 21.3987 46.3837 22.0861 45.9643 22.5288L41.7701 26.8744H41.7934Z" stroke="#EE3524" stroke-width="1.5" stroke-linecap="round" stroke-linejoin="round"/>
<path d="M18.6328 21.6615L22.4309 25.3781L30.0153 17.8984" stroke="#EE3524" stroke-width="1.5" stroke-linecap="round" stroke-linejoin="round"/>
</g>
<defs>
<clipPath id="clip0_3247_658">
<rect width="49.3398" height="60" fill="white"/>
</clipPath>
</defs>
</svg>
