<svg width="9" height="14" viewBox="0 0 9 14" fill="none" xmlns="http://www.w3.org/2000/svg">
<path d="M7.88772 0.333332H6.08972C4.06974 0.333332 2.76286 1.61867 2.76286 3.61333V5.12533H0.950988C0.795605 5.12533 0.667969 5.24533 0.667969 5.39733V7.58933C0.667969 7.73866 0.795605 7.86133 0.950988 7.86133H2.76009V13.392C2.76009 13.5413 2.88772 13.664 3.04311 13.664H5.4016C5.55698 13.664 5.68462 13.5413 5.68462 13.392V7.86133H7.79893C7.95432 7.86133 8.08195 7.73866 8.08195 7.58933V5.39733C8.08195 5.32533 8.05421 5.256 7.99871 5.20533C7.94599 5.15466 7.87385 5.12533 7.79893 5.12533H5.68184V3.84267C5.68184 3.22667 5.83445 2.912 6.66963 2.912H7.88218C8.03756 2.912 8.16519 2.78933 8.16519 2.64V0.607999C8.16519 0.458665 8.04033 0.335999 7.88218 0.335999L7.88772 0.333332Z" fill="#515151"/>
</svg>
