<svg width="13" height="11" viewBox="0 0 13 11" fill="none" xmlns="http://www.w3.org/2000/svg">
<path d="M12.4392 6.8075V11H9.95003V7.08917C9.95003 6.10767 9.59063 5.436 8.68992 5.436C8.00219 5.436 7.59399 5.88667 7.41429 6.32433C7.34774 6.48033 7.33221 6.697 7.33221 6.91583V10.9978H4.84306C4.84306 10.9978 4.87634 4.37433 4.84306 3.6875H7.33221V4.72317C7.33221 4.72317 7.32112 4.73833 7.31668 4.747H7.33221V4.72317C7.66276 4.227 8.25288 3.51633 9.5751 3.51633C11.2123 3.51633 12.4392 4.56067 12.4392 6.80533V6.8075ZM2.24077 0.166668C1.38887 0.166668 0.832031 0.712668 0.832031 1.42983C0.832031 2.147 1.37334 2.693 2.2075 2.693H2.22302C3.09045 2.693 3.62955 2.13183 3.62955 1.42983C3.61402 0.712668 3.09045 0.166668 2.23855 0.166668H2.24077ZM0.98067 11H3.4676V3.68967H0.98067V11Z" fill="black"/>
</svg>
