<svg width="63" height="66" viewBox="0 0 63 66" fill="none" xmlns="http://www.w3.org/2000/svg">
<path d="M49.4147 66H42.6161C42.6161 66 32.2464 41.7372 0.0351562 39.6131V38.4526C0.0351562 38.4526 38.7158 37.0949 50.9319 66H49.4147Z" fill="#EFECE8"/>
<path d="M26.7144 45.5912C37.5565 49.9343 44.6557 59.4161 48.4772 66H50.9319C47.6542 56.1387 43.5464 47.9562 30.2354 41.1898C18.2555 35.0949 6.55469 36.2336 0.0351562 37.6277V39.8905C5.94639 40.0584 15.443 41.0876 26.7073 45.5912H26.7144Z" fill="#E52713"/>
<path d="M51.8557 0.0437965C29.6134 30.9708 0.329197 25.3139 0.329197 25.3139L0 31.9854C28.2179 35.5693 49.5871 5.31387 52.7646 0.547446L51.8485 0.0510958L51.8557 0.0437965Z" fill="#EFECE8"/>
<path d="M51.762 0C48.191 5.35766 40.14 15.3212 31.6953 21.8832C21.1038 30.1095 7.22024 30.5401 0.0351562 30.0803V31.9343C10.6482 34.4672 19.9086 35.6642 33.1409 27.1606C43.6037 20.438 51.1108 8.08029 53.9519 1.18248L51.762 0Z" fill="#80BA27"/>
<path d="M62.8333 6.0146L57.5948 3.16788C38.802 34.4088 57.4588 65.9927 57.4588 65.9927L59.4913 65.9343C42.8668 43.6788 61.0084 9.33577 62.8262 6.0219L62.8333 6.0146Z" fill="#EFECE8"/>
<path d="M49.9662 32.438C51.7482 18.3723 56.3211 8.75182 58.9834 3.91971L57.5664 3.14598C53.5444 7.45985 45.0139 18.1679 44.3985 33.7664C43.7616 50.0876 49.6871 57.6569 57.3875 65.9927H59.4843C55.856 60.6204 48.0841 47.1241 49.9591 32.4307L49.9662 32.438Z" fill="#454444"/>
</svg>
