<svg width="233" height="66" viewBox="0 0 233 66" fill="none" xmlns="http://www.w3.org/2000/svg">
<g clip-path="url(#clip0_485_2848)">
<path d="M207.779 19.4088C208.058 19.708 208.573 19.7153 208.845 19.4088L209.375 18.8102L209.911 19.4088C210.047 19.562 210.24 19.6496 210.448 19.6496C210.656 19.6496 210.842 19.562 210.978 19.4088L211.65 18.6496C211.915 18.3577 211.915 17.8905 211.65 17.6058L210.978 16.854C210.698 16.5547 210.176 16.5547 209.911 16.854L209.382 17.4453L208.845 16.854C208.573 16.5547 208.051 16.5547 207.779 16.854L207.106 17.6058C206.841 17.8978 206.841 18.365 207.106 18.6496L207.786 19.4088H207.779ZM228.733 24.6496C228.704 23.4745 228.69 21.2117 228.711 19.0219V18.9489L228.675 18.8467L228.497 18.6277L228.368 18.562L227.058 18.5839L226.922 18.6642L226.765 18.9124L226.736 19.0073C226.736 19.0073 226.743 19.7737 226.75 20.2409V20.3358C226.758 21.1387 226.779 22.0219 226.786 22.3796C226.829 23.5182 226.75 24.5985 226.829 26.8686C226.908 29 225.355 29.1752 224.074 29.1752C223.566 29.1752 223.158 29.0803 222.8 28.8905C223.394 28.0511 223.702 26.9854 223.702 25.781C223.702 22.5036 221.433 20.7883 219.193 20.7883C216.953 20.7883 214.677 22.5109 214.677 25.7956C214.677 26.5693 214.806 27.2847 215.057 27.9197C214.856 28.7226 214.42 29.0949 213.611 29.1679C213.611 27.7153 213.611 23.6934 213.64 21.5839V21.5255L213.618 21.4307L213.461 21.1752L213.346 21.0949L212.344 20.9854C211.55 20.9051 210.555 20.7956 209.153 20.7956C205.302 20.7956 203.528 22.1971 203.499 25.2117C203.492 27.6569 205.059 28.781 207.249 29.292C206.555 29.3066 204.644 29.2555 203.828 29.1752C202.476 29.0365 201.982 28.438 201.96 26.8686C201.917 24.5766 201.96 23.4963 202.011 22.3577C202.025 22.0073 202.039 21.073 202.053 20.1168L202.068 19L202.039 18.9051L201.882 18.6569L201.746 18.5766L200.429 18.5547L200.3 18.6204L200.121 18.8394L200.078 18.9416V19.0219C200.107 21.1971 200.085 23.4161 200.064 24.6423C200.057 25.2482 200.042 25.9416 200.028 26.9854C200.028 27.9562 200.293 28.8102 200.815 29.4526C201.474 30.2701 202.476 30.7007 203.707 30.7007H203.714C204.329 30.7883 205.095 30.8321 205.882 30.8321C206.963 30.8321 209.632 30.7299 211.672 29.8175V30.3358L211.793 30.5037L211.944 30.5401C212.344 30.635 212.781 30.6861 213.239 30.6934C213.239 30.6934 213.346 30.6934 213.382 30.6934C214.577 30.6934 215.558 30.3066 216.216 29.5766C217.018 30.292 218.098 30.6934 219.2 30.6934C219.988 30.6934 220.796 30.4745 221.476 30.0803C221.863 30.2993 222.764 30.6934 224.117 30.6934C225.376 30.6934 227.33 30.2628 227.981 29.4453C228.504 28.8029 228.776 27.9489 228.769 26.9781C228.769 26.0365 228.747 25.3796 228.74 24.8248V24.635L228.733 24.6496ZM209.596 27.9854C206.226 27.9854 205.489 26.9489 205.489 25.2044C205.489 23.2263 206.462 22.6569 209.389 22.6569C210.462 22.6569 211.049 22.7664 211.65 22.9124C211.679 24.073 211.679 26.1241 211.679 27.8175C211.035 27.9343 210.348 27.9854 209.604 27.9854H209.596ZM221.247 27.927L221.183 27.9489L221.082 28.1095V28.1387C220.639 28.6569 219.995 28.9197 219.172 28.9197C217.046 28.9197 216.603 27.1971 216.603 25.7591C216.603 24.3212 217.046 22.5328 219.172 22.5328C220.811 22.5328 221.784 23.7445 221.784 25.7737C221.784 26.6642 221.605 27.3869 221.247 27.9197V27.927ZM166.522 19.8905C166.658 20.0438 166.858 20.1314 167.058 20.1314C167.259 20.1314 167.452 20.0438 167.595 19.8905L168.268 19.1387C168.54 18.8467 168.54 18.3869 168.268 18.0949L167.595 17.3431C167.316 17.0365 166.801 17.0365 166.522 17.3431L165.842 18.0949C165.584 18.3942 165.584 18.8467 165.842 19.1387L166.522 19.8905ZM172.583 23.073C172.569 22.6131 172.569 22.6058 172.605 21.4818V21.4307L172.59 21.3504L172.461 21.1022L172.318 21.0146H172.025L171.982 20.9927H171.352H171.059H170.987L170.894 21.0292L170.687 21.1898L170.622 21.3139L170.608 21.8394L170.622 23.0073C170.622 23.9051 170.637 24.6204 170.637 26.1533C170.637 28.3723 169.978 29.0876 167.939 29.0876H166.751C164.711 29.0876 164.053 28.3723 164.053 26.1533C164.053 24.6131 164.06 23.8905 164.067 22.9854V21.8321L164.06 21.3212L163.995 21.1898L163.802 21.0292L163.688 20.9927H163.351H162.757L162.371 21.0146L162.228 21.1022L162.099 21.3504L162.085 21.4307V21.4818C162.108 22.2263 162.116 22.7567 162.106 23.073V23.562C162.092 24.1606 162.07 24.8905 162.07 25.9927C162.07 26.8175 162.178 27.562 162.392 28.1825C162.55 28.6277 162.757 29.0219 163.015 29.3431C163.208 29.5693 163.416 29.7664 163.652 29.9416C164.36 30.4526 165.291 30.7007 166.493 30.7007H168.218C169.413 30.7007 170.343 30.4526 171.052 29.9416C171.288 29.7737 171.503 29.5693 171.689 29.3431C171.946 29.0219 172.161 28.635 172.318 28.1825C172.533 27.562 172.648 26.8248 172.64 25.9927C172.64 24.8905 172.626 24.1606 172.612 23.562V23.073H172.583ZM198.618 25.2555C198.59 24.1533 198.575 23.4307 198.597 21.1679V21.073L198.547 20.9854L198.447 20.8686L198.332 20.8102L197.38 20.7299C196.615 20.6642 195.656 20.5912 194.26 20.5912C190.739 20.5912 189.308 21.562 189.308 23.9416C189.308 26.3212 190.968 27.4745 194.525 27.4745C195.14 27.4745 195.928 27.438 196.715 27.365V27.5109C196.586 28.5985 195.291 29.1606 194.074 29.1606C192.585 29.1606 191.505 28.8832 191.118 28.4015L191.04 28.3139L190.882 28.2628L190.496 28.3358L190.367 28.5036L190.388 30.1606L190.467 30.2993L190.546 30.3577C191.018 30.6861 193.988 30.6934 194.11 30.6934C194.804 30.6934 196.564 30.5328 197.251 30.0584C197.495 29.8832 197.709 29.6934 197.888 29.4672C198.303 28.9562 198.568 28.2774 198.633 27.5036C198.633 26.7445 198.633 26.4453 198.633 25.6788V25.2482L198.618 25.2555ZM194.697 25.9197C191.204 25.9197 191.204 25.219 191.204 24.1533C191.204 22.9197 191.419 22.1825 194.489 22.1825C195.527 22.1825 196.092 22.2628 196.679 22.365C196.686 22.6277 196.7 23 196.7 23C196.708 23.7664 196.708 24.7445 196.708 25.7883C196.085 25.8759 195.419 25.9124 194.689 25.9124L194.697 25.9197ZM232.79 18.9416L232.748 18.8394L232.569 18.6204L232.44 18.5547L231.066 18.5839L230.923 18.6715L230.801 18.927L230.772 19.0073V19.0584C230.815 21.2482 230.815 27.073 230.787 30.1168V30.219L230.851 30.3504L231.059 30.5109L231.159 30.5474H232.418L232.547 30.4891L232.705 30.292L232.733 30.219L232.769 30.0219C232.748 26.927 232.733 22.4161 232.769 19.0146V18.9343L232.79 18.9416ZM187.504 21.2555C187.49 20.8102 187.476 20.708 187.476 20.6496C187.469 20.5766 187.469 20.562 187.476 19.1825V19.1022L187.44 19L187.261 18.781L187.132 18.7153L185.823 18.7372L185.694 18.8102L185.529 19.0584L185.501 19.1606V19.2263C185.515 19.9416 185.543 20.5036 185.565 21.0584L185.586 21.5839C185.622 22.365 185.644 22.8905 185.608 24.781C185.586 26.4161 185.05 27.0876 183.776 27.0876C183.64 27.0876 183.504 27.0876 183.389 27.0584V25.4818C183.361 24.3504 183.346 23.5985 183.361 21.4161L183.346 21.3212L183.311 21.2482L183.218 21.1241L183.103 21.073L182.151 20.9927C181.378 20.9343 180.419 20.854 179.031 20.854C175.503 20.854 174.072 21.8248 174.072 24.2044C174.072 26.5839 175.732 27.7445 179.289 27.7445C179.911 27.7445 180.699 27.7007 181.479 27.6423V27.7883C181.35 28.8686 180.054 29.438 178.838 29.438C177.349 29.438 176.269 29.1606 175.875 28.6788L175.804 28.5912L175.646 28.5401L175.253 28.6131L175.124 28.781L175.152 30.438L175.217 30.5766L175.303 30.635C175.782 30.9635 178.738 30.9635 178.867 30.9635C179.568 30.9635 181.328 30.8029 182.015 30.3285C182.259 30.1533 182.473 29.9562 182.652 29.7372C182.903 29.4234 183.103 29.0438 183.232 28.6204C183.404 28.6423 183.597 28.6496 183.804 28.6496C185.071 28.6496 186.095 28.219 186.753 27.4015C187.275 26.7591 187.547 25.9051 187.533 24.9343V23.7153C187.519 22.7445 187.504 21.7007 187.504 21.2847V21.2555ZM179.461 26.1533C175.968 26.1533 175.968 25.4526 175.968 24.3869C175.968 23.1606 176.19 22.4161 179.26 22.4161C180.305 22.4161 180.87 22.4963 181.45 22.5985L181.471 23.2409C181.479 24.0073 181.479 24.9854 181.479 26.0292C180.849 26.1095 180.183 26.1533 179.461 26.1533Z" fill="white"/>
<path d="M89.2977 22.9854C89.2929 22.6691 89.2977 22.1362 89.312 21.3869V21.3358L89.2977 21.2555L89.1617 21L89.0257 20.9124H88.7323L88.6894 20.8832H88.0525H87.7519H87.6803L87.5944 20.9197L87.3941 21.073L87.3296 21.2044L87.3153 21.7299V22.8394C87.3368 23.7664 87.344 24.4817 87.344 26.0365C87.344 28.2628 86.6856 28.9708 84.646 28.9708H83.458C81.4113 28.9708 80.76 28.2628 80.76 26.0365C80.76 24.5474 80.7672 23.8248 80.7743 22.9562V21.7153V21.2044L80.7099 21.073L80.5024 20.9051L80.395 20.8686H80.0587H79.4575L79.0711 20.8905L78.928 20.9781L78.8135 21.219L78.7848 21.3431V21.4015C78.8039 22.1265 78.8111 22.6496 78.8063 22.9708V23.438C78.792 24.0365 78.7777 24.7664 78.7777 25.8686C78.7705 26.7007 78.8779 27.438 79.0854 28.0584C79.25 28.5109 79.4575 28.8905 79.7152 29.219C79.8941 29.438 80.1088 29.6423 80.3521 29.8175C81.0606 30.3285 81.9838 30.5766 83.1861 30.5766H84.9108C86.1059 30.5766 87.0362 30.3212 87.7447 29.8102C87.988 29.6423 88.2027 29.438 88.3745 29.219C88.6321 28.8978 88.8468 28.5109 89.0043 28.0584C89.219 27.4307 89.3335 26.7007 89.3191 25.8686C89.3191 24.8175 89.3048 24.0949 89.2977 23.5109V22.9562V22.9854Z" fill="white"/>
<path d="M83.2456 21.2044C83.3816 21.3577 83.5748 21.4453 83.7752 21.4453C83.9756 21.4453 84.176 21.3577 84.3048 21.2044L84.9918 20.4453C85.2566 20.1533 85.2566 19.6934 84.9918 19.4088L84.3048 18.6496C84.0329 18.3504 83.5176 18.3504 83.2456 18.6496L82.5658 19.4088C82.301 19.7007 82.301 20.1533 82.5658 20.4453L83.2456 21.2044Z" fill="white"/>
<path d="M104.333 31.9635C104.061 31.6569 103.546 31.6569 103.267 31.9635L102.73 32.562L102.193 31.9635C101.921 31.6569 101.406 31.6569 101.127 31.9635L100.447 32.7226C100.189 33.0146 100.189 33.4745 100.447 33.7591L101.127 34.5109C101.399 34.8175 101.921 34.8175 102.193 34.5109L102.723 33.9197L103.26 34.5109C103.396 34.6642 103.589 34.7518 103.796 34.7518C104.004 34.7518 104.19 34.6642 104.326 34.5109L105.013 33.7591C105.271 33.4672 105.271 33.0073 105.013 32.7226L104.333 31.9635Z" fill="white"/>
<path d="M139.628 19.7883C139.764 19.9416 139.958 20.0365 140.158 20.0365C140.358 20.0365 140.559 19.9489 140.688 19.7883L141.367 19.0365C141.632 18.7445 141.632 18.2847 141.367 18L140.688 17.2409C140.416 16.9416 139.9 16.9416 139.621 17.2409L138.949 18C138.684 18.292 138.684 18.7518 138.949 19.0365L139.621 19.7883H139.628Z" fill="white"/>
<path d="M150.14 24.5474C150.118 23.3358 150.104 21.1314 150.125 18.9197V18.8467L150.089 18.7372L149.903 18.5182L149.775 18.4599L148.465 18.4745L148.329 18.5474L148.172 18.8029L148.143 18.8905L148.164 20.1241C148.179 20.9489 148.186 21.9051 148.2 22.2774C148.25 23.4161 148.3 24.4817 148.25 26.7664C148.2 29.2701 146.304 29.073 145.023 29.073C144.665 29.073 144.379 29.0365 144.157 28.9708C144.858 28.2044 145.216 27.1971 145.216 25.9854C145.216 22.9781 143.427 21.5766 139.569 21.5766C138.453 21.5766 136.821 21.9124 135.941 22.0876L135.855 22.1095C135.662 22.146 135.526 22.1752 135.469 22.1898H135.383L135.261 22.2774L135.111 22.5328L135.082 22.6204L135.097 23.9124L135.29 24.073L135.519 24.0365C135.698 24.0073 135.927 23.9635 136.17 23.9124L136.235 23.8978C137.179 23.708 138.482 23.4599 139.348 23.4599C142.275 23.4599 143.169 24.0657 143.169 26.0438C143.169 27.7518 142.504 28.7445 139.133 28.7445C138.94 28.7445 138.661 28.7445 138.346 28.7226L134.853 28.708C133.572 28.708 133.05 28.0438 133.021 26.4088C132.978 24.3504 133.014 23.5766 133.057 22.5766V22.2555C133.079 21.9124 133.093 21.0073 133.107 20.1095C133.121 19.6423 133.129 18.8978 133.129 18.8978L133.1 18.8102L132.935 18.5547L132.799 18.4818L131.497 18.4672L131.375 18.5255L131.196 18.7445L131.161 18.854V18.9343C131.175 21.1168 131.161 23.3285 131.139 24.5547C131.125 25.1606 131.111 25.854 131.103 26.8978C131.103 27.0292 131.111 27.1606 131.125 27.2774V27.2993C130.889 28.5401 130.216 28.9927 128.649 28.9927H128.269C126.43 28.9927 125.786 28.365 125.693 26.5255C125.707 26.3285 125.715 26.1241 125.715 25.9124C125.707 25.0949 125.7 24.1971 125.693 23.5547L125.715 21.2555L125.7 20.7445L125.643 20.6204L125.571 20.562L125.543 20.5255L125.443 20.4672L125.335 20.4161H125.099H125.092H124.176L124.083 20.4307L123.832 20.6131L123.768 20.7372L123.754 21.2628L123.775 23.5182C123.768 24.1679 123.754 25.073 123.754 25.9051C123.754 26.1168 123.754 26.3212 123.768 26.4745C123.689 28.3577 123.045 28.9927 121.199 28.9927H120.827C119.36 28.9927 118.694 28.6204 118.415 27.5912C118.58 27.1022 118.665 26.5547 118.665 25.9854C118.665 22.9781 116.869 21.5766 113.019 21.5766C111.903 21.5766 110.264 21.9124 109.391 22.0876C109.147 22.146 108.983 22.1752 108.918 22.1898H108.825L108.704 22.2774L108.553 22.5328L108.532 22.6277V22.6861C108.532 22.9708 108.532 23.3066 108.546 23.6788V23.9124L108.739 24.073L108.961 24.0365C109.154 24 109.398 23.9562 109.677 23.8978C110.629 23.708 111.924 23.4599 112.783 23.4599C115.71 23.4599 116.604 24.0657 116.604 26.0438C116.604 27.7518 115.946 28.7445 112.575 28.7445C112.404 28.7445 112.175 28.7445 111.917 28.7299L108.425 28.7153C107.144 28.7153 106.614 28.0511 106.592 26.4161C106.557 24.6642 106.628 22.8102 106.671 21.7007C106.686 21.3577 106.693 21.0949 106.7 20.9197V20.854L106.671 20.7591L106.507 20.5109L106.378 20.438H105.068L104.946 20.4891L104.768 20.708L104.732 20.8175V20.8905C104.739 22.5912 104.71 24.6715 104.689 25.7883V25.8613C104.689 26.292 104.675 26.6496 104.675 26.9489V27.489C104.675 28.4088 103.766 29.0803 102.52 29.0803H102.427C100.431 29.0511 100.137 28.2628 100.109 27.5036L100.094 26.7372C100.094 24.4453 100.094 22.635 100.102 21.3212L100.087 21.2409L100.051 21.1606L99.9584 21.0365L99.844 20.9708C99.844 20.9708 99.207 20.9197 98.885 20.8978C98.1121 20.8321 97.1531 20.7591 95.7648 20.7591C92.2438 20.7591 90.8125 21.7226 90.8125 24.1095C90.8125 26.4963 92.4728 27.635 96.0296 27.635C96.6522 27.635 97.4394 27.5985 98.2266 27.5328V27.6788C98.0978 28.7664 96.8025 29.3358 95.593 29.3358C94.0973 29.3358 93.0167 29.0584 92.6231 28.5839L92.5444 28.4963L92.3941 28.438L92.0076 28.5182L91.8788 28.6861L91.8931 30.3431L91.9718 30.4817L92.0506 30.5401C92.5301 30.8686 95.4928 30.8686 95.6145 30.8686C96.3158 30.8686 98.0763 30.7153 98.7562 30.2409C98.7991 30.2044 98.842 30.1752 98.8778 30.1387L98.9208 30.1022C99.0782 29.9781 99.207 29.8613 99.3144 29.7372C99.4217 29.8394 99.5291 29.9197 99.6436 30.0073C100.152 30.365 101.275 30.6131 102.42 30.635C102.492 30.635 102.563 30.635 102.628 30.635C103.651 30.635 104.667 30.3796 105.218 30.0073C105.383 29.8905 105.54 29.7591 105.676 29.6204C106.335 30.292 107.28 30.6423 108.417 30.6423H112.776C114.758 30.6423 116.268 30.2044 117.284 29.3285C117.449 29.5328 117.642 29.708 117.85 29.8759C118.537 30.3869 119.431 30.6423 120.583 30.6423H121.478C122.637 30.6423 123.525 30.3869 124.212 29.8759C124.412 29.7226 124.591 29.5547 124.741 29.365C124.906 29.5547 125.078 29.7226 125.285 29.8759C125.965 30.3869 126.86 30.6423 128.019 30.6423H128.913C130.073 30.6423 130.96 30.3869 131.647 29.8759C131.776 29.7737 131.905 29.6642 132.027 29.5474C132.685 30.2628 133.658 30.6423 134.839 30.6423H139.326C140.593 30.6423 141.688 30.4599 142.575 30.0949C143.005 30.3139 143.842 30.6423 145.08 30.6423C146.318 30.6423 148.758 30.2117 149.417 29.3869C149.946 28.7445 150.211 27.8905 150.204 26.927C150.204 25.9635 150.182 25.2993 150.168 24.7299V24.5912L150.14 24.5474ZM96.1727 26.0511C92.6732 26.0511 92.6732 25.3504 92.6732 24.2847C92.6732 23.0584 92.8879 22.3139 95.9652 22.3139C97.01 22.3139 97.5682 22.3942 98.155 22.4963C98.155 22.7226 98.1622 22.9343 98.1765 23.1314C98.1765 23.8978 98.1836 24.8832 98.1836 25.927C97.5539 26.0146 96.8883 26.0511 96.1655 26.0511H96.1727Z" fill="white"/>
<path d="M154.199 18.8467L154.163 18.7372L153.984 18.5182L153.856 18.4599L152.482 18.4891L152.338 18.5766L152.217 18.8321L152.195 18.9124V18.9635C152.238 21.1387 152.245 26.9635 152.217 30.0292V30.1314L152.274 30.2555L152.489 30.4234L152.582 30.4599H153.848L153.97 30.3942L154.128 30.2044L154.185 30.0219V29.927C154.178 26.562 154.163 22.2628 154.192 18.927V18.854L154.199 18.8467Z" fill="white"/>
<path d="M114.16 31.9635C113.888 31.6569 113.372 31.6569 113.101 31.9635L112.428 32.7226C112.163 33.0146 112.156 33.4745 112.428 33.7591L113.108 34.5109C113.251 34.6642 113.437 34.7518 113.644 34.7518C113.838 34.7518 114.038 34.6642 114.174 34.5109L114.854 33.7591C115.119 33.4672 115.119 33.0073 114.854 32.7226L114.174 31.9635H114.16Z" fill="white"/>
<path d="M123.268 31.9635C122.996 31.6569 122.481 31.6569 122.202 31.9635L121.672 32.562L121.135 31.9635C120.863 31.6569 120.355 31.6569 120.076 31.9635L119.396 32.7226C119.139 33.0146 119.139 33.4745 119.396 33.7591L120.076 34.5109C120.355 34.8175 120.871 34.8175 121.135 34.5109L121.672 33.9197L122.202 34.5109C122.338 34.6642 122.538 34.7518 122.731 34.7518C122.924 34.7518 123.132 34.6642 123.261 34.5109L123.941 33.7591C124.198 33.4672 124.205 33.0073 123.941 32.7226L123.261 31.9635H123.268Z" fill="white"/>
<path d="M90.5864 48.8467V48.7153L90.5435 48.6058L90.3145 48.3723L90.2214 48.3285H88.9476L88.8331 48.3869L88.6256 48.6642L88.5898 48.7518V48.8613C88.6327 50.6131 88.6327 51.3139 88.6112 52.3139C87.9028 52.6569 87.0154 53.0073 85.5268 53.0073C82.6284 53.0073 81.2759 51.6642 81.2759 48.7956C81.2759 45.927 82.8217 44.4599 85.5125 44.4599C87.9171 44.4599 88.8832 45.2044 89.4486 45.8467L89.6275 46.0438L89.8064 46.073L90.2143 45.7956L90.2787 45.6788V43.8978L90.2071 43.781L90.0568 43.6861C88.9977 43.073 87.4161 42.7445 85.4767 42.7445C81.8269 42.7445 79.1719 45.292 79.1719 48.7883C79.1719 52.2847 81.6122 54.7153 85.534 54.7153C87.8455 54.7153 89.2124 54.1606 90.3503 53.562L90.5149 53.4672L90.5936 53.3431V53.146C90.5363 51.5693 90.5363 50.5986 90.5936 48.8394L90.5864 48.8467Z" fill="white"/>
<path d="M100.486 44.5693L100.372 44.511H99.1191L99.0261 44.5547L98.7971 44.781L98.7541 44.8905V45.0219C98.7828 46.6861 98.7971 49.511 98.7828 51.8978C98.0528 52.6715 97.0438 53.0584 95.7771 53.0584C94.0738 53.0584 93.5514 52.4234 93.5514 50.3504C93.5514 48.2774 93.5657 46.8832 93.5729 45.3358V44.8905L93.5371 44.7883L93.3081 44.562L93.215 44.5183H91.9627L91.841 44.5912L91.6692 44.8905L91.6549 44.9635V45.0438C91.6836 46.365 91.6836 46.9489 91.6621 47.9197C91.6621 48.4818 91.6406 49.1752 91.6406 50.219C91.6406 51.7883 91.9985 52.9562 92.7284 53.708C93.3868 54.3869 94.31 54.7153 95.5409 54.7153C96.8362 54.7153 97.9383 54.4307 98.9044 53.8321C98.9044 53.9197 98.9116 54.0073 98.9187 54.0949V54.1971L98.9474 54.2774L99.1406 54.5328L99.2479 54.5912H100.307L100.414 54.5475L100.651 54.2993L100.686 54.1971V54.0219C100.672 51.0292 100.658 48.1971 100.701 45.0511V44.9416L100.672 44.8613L100.479 44.5985L100.486 44.5693Z" fill="white"/>
<path d="M109.671 52.8029L109.564 52.7591H109.428C107.968 52.854 106.207 52.8978 104.733 52.8978C104.483 52.8978 104.239 52.8978 104.025 52.8978C103.975 50.7518 104.018 46.3942 104.039 45.0219V44.8905L104.003 44.781L103.767 44.5547L103.674 44.511H102.422L102.3 44.5839L102.135 44.8832L102.121 44.9562V45.0438C102.157 47.1387 102.157 51.2701 102.121 54.0657V54.1971L102.157 54.2993L102.393 54.5329L102.493 54.5766H102.615C104.247 54.5328 107.109 54.5693 108.998 54.5766H109.664L109.793 54.511L109.936 54.2263L109.95 53.1387L109.907 53.0438L109.671 52.8102V52.8029Z" fill="white"/>
<path d="M118.706 44.7664L118.477 44.5329L118.377 44.4964H118.255C116.216 44.511 111.256 44.511 111.199 44.511H111.027L110.905 44.584L110.741 44.8832L110.727 44.9562V45.0438C110.77 47.1387 110.77 51.2701 110.727 54.0657V54.1971L110.769 54.2993L111.006 54.5329L111.106 54.5766H112.358L112.473 54.5037L112.644 54.2044L112.666 54.1314V54.0511C112.666 54.0511 112.637 52.1606 112.637 50.6058C113.11 50.5985 113.582 50.5912 114.047 50.5912C115.042 50.5912 116.087 50.6131 117.153 50.6569H117.311L117.425 50.6058L117.618 50.3431L117.647 50.2555V49.2993L117.604 49.1971L117.375 48.9635L117.275 48.927H117.146C116.001 48.9562 114.899 48.9635 113.947 48.9635C113.482 48.9635 113.038 48.9635 112.637 48.9635C112.637 48.0511 112.652 46.854 112.652 46.219C112.874 46.219 113.11 46.2117 113.36 46.2117C114.834 46.2117 116.623 46.2555 118.262 46.3431H118.42L118.534 46.2993L118.735 46.0365L118.763 45.9489V44.8905L118.727 44.7883L118.706 44.7664Z" fill="white"/>
<path d="M133.355 51.0876L133.191 51.1168L133.04 51.2774C131.995 52.3723 131.015 53.0073 129.083 53.0073C126.206 53.0073 124.753 51.5985 124.753 48.8102C124.753 46.0219 126.32 44.4599 129.047 44.4599C131.187 44.4599 132.232 45.1825 132.826 45.7299L133.033 45.9197H133.226L133.57 45.5693L133.613 45.4672V43.854L133.527 43.7372L133.355 43.6569C132.869 43.4088 131.566 42.7518 129.011 42.7518C125.268 42.7518 122.656 45.2482 122.656 48.8175C122.656 52.3869 125.175 54.7299 129.083 54.7299C131.616 54.7299 133.14 53.7664 133.684 53.365L133.806 53.2774L133.856 53.1606V51.4599L133.785 51.3285L133.355 51.1022V51.0876Z" fill="white"/>
<path d="M139.555 44.3869C136.864 44.3869 134.145 46.1752 134.145 49.5839C134.145 52.9927 136.95 54.6934 139.555 54.6934C142.16 54.6934 144.958 53.0949 144.958 49.562C144.958 46.0292 142.238 44.3796 139.555 44.3796V44.3869ZM139.519 46.0146C141.68 46.0146 142.926 47.3212 142.926 49.5912C142.926 51.8613 141.723 53.0584 139.519 53.0584C137.315 53.0584 136.17 51.7883 136.17 49.5693C136.17 47.3504 137.386 46.0146 139.519 46.0146Z" fill="white"/>
<path d="M154.689 44.9124L154.653 44.8321L154.46 44.5693L154.353 44.511H153.394L153.265 44.5839L153.1 44.8832L153.086 44.9562V45.0438C153.108 46.5693 153.115 49.2117 153.093 51.2263C151.476 49.4526 149.136 46.8321 147.332 44.6788L147.246 44.5693L147.139 44.5183H146.13L146.03 44.562L145.801 44.7883L145.758 44.8978V45.0292C145.786 47.1533 145.786 51.8029 145.758 54.0657V54.1971L145.801 54.2993L146.03 54.5329L146.13 54.5766H147.025L147.139 54.5183L147.325 54.2555L147.354 54.1752V54.0657C147.332 51.927 147.339 48.9635 147.354 47.6788C149.229 49.7591 151.812 52.6642 153.236 54.4088L153.322 54.5183L153.43 54.5693H154.338L154.453 54.511L154.653 54.2409L154.689 54.1533V54.0438C154.646 51.2774 154.646 47.6569 154.689 45.0219V44.9124Z" fill="white"/>
<path d="M164.308 44.5474L164.193 44.4891H164.043C161.338 44.5037 158.618 44.5037 155.913 44.4891H155.763L155.655 44.5474L155.462 44.8029L155.434 44.8905V45.9927L155.477 46.0876L155.713 46.3285L155.827 46.3723L155.963 46.3577C157.029 46.2701 158.003 46.2263 159.019 46.2044C159.048 48.3431 159.048 51.5402 159.019 54.0438V54.1533L159.04 54.2409L159.248 54.511L159.355 54.5693H160.579L160.679 54.5255L160.901 54.2993L160.944 54.1971V53.6934C160.93 51.1533 160.923 48.9416 160.951 46.219C161.774 46.2336 162.848 46.2701 163.986 46.365L164.107 46.3796L164.207 46.3504L164.479 46.1314L164.537 46.0219V44.9051L164.508 44.8175L164.315 44.562L164.308 44.5474Z" fill="white"/>
<path d="M193.641 51.5401L193.476 51.562L193.319 51.7299C192.539 52.5547 191.701 53.0584 189.948 53.0584C187.572 53.0584 186.52 51.9854 186.52 49.5693C186.52 47.1533 187.694 46.0146 189.927 46.0146C191.651 46.0146 192.553 46.6496 193.133 47.1971L193.247 47.3066L193.376 47.3358L193.827 47.219L193.934 47.0803V45.3942L193.855 45.2701L193.698 45.1898C192.682 44.6642 191.401 44.3942 189.884 44.3942C186.799 44.3942 184.48 46.6277 184.48 49.5912C184.48 52.5547 186.627 54.7007 189.948 54.7007C192.217 54.7007 193.598 53.7883 193.963 53.5109L194.084 53.4234L194.142 53.3066V51.8978L194.07 51.7737L193.648 51.5474L193.641 51.5401Z" fill="white"/>
<path d="M208.747 44.3869C206.063 44.3869 203.344 46.1752 203.344 49.5839C203.344 52.9927 206.142 54.6934 208.747 54.6934C211.352 54.6934 214.15 53.0949 214.15 49.562C214.15 46.0292 211.431 44.3796 208.747 44.3796V44.3869ZM208.718 46.0146C210.879 46.0146 212.118 47.3212 212.118 49.5912C212.118 51.8613 210.908 53.0584 208.718 53.0584C206.528 53.0584 205.369 51.7883 205.369 49.5693C205.369 47.3504 206.593 46.0146 208.718 46.0146Z" fill="white"/>
<path d="M223.977 53.7445C222.861 52.5037 222.002 51.4891 221.237 50.4818C222.832 50.0219 223.713 48.9854 223.713 47.5548C223.713 44.7591 221.122 44.3942 218.861 44.3942C217.551 44.3942 216.635 44.4818 215.905 44.5402L215.275 44.5985L215.168 44.6715L215.018 44.9489L214.996 45.0219V45.1095C215.039 47.2336 215.039 51.2482 214.996 54.0584V54.1898L215.032 54.292L215.261 54.5256L215.361 54.5694H216.542L216.642 54.5256L216.871 54.292L216.914 54.1898V54.0584C216.9 53.1387 216.893 51.9781 216.885 50.7956C217.537 50.854 218.123 50.8905 218.624 50.8905C218.775 50.8905 218.918 50.8905 219.068 50.8832C220.106 52.0949 221.086 53.3431 221.831 54.3796L221.916 54.511L222.038 54.5694H223.799L223.92 54.4964L224.149 54.0803L224.135 53.9124L223.985 53.7518L223.977 53.7445ZM216.907 46.1679C217.386 46.0657 217.816 46.0146 218.646 46.0146C221.287 46.0146 221.73 46.4088 221.73 47.5693C221.73 48.3285 221.73 49.2628 218.46 49.2628C217.88 49.2628 217.365 49.2263 216.885 49.1606C216.885 47.8978 216.885 46.8613 216.907 46.1679Z" fill="white"/>
<path d="M230.763 48.5474C230.14 48.4307 229.468 48.3942 228.802 48.3577C228.065 48.3212 227.378 48.2847 226.82 48.1387C226.262 47.9927 226.068 47.7664 226.068 47.2409C226.068 46.1898 227.571 46.0292 228.466 46.0292C230.441 46.0292 231.328 46.7737 231.607 47.0949L231.794 47.3066L231.98 47.3212L232.38 47L232.438 46.8832V45.4161L232.366 45.2993L232.216 45.2117C231.6 44.8394 230.455 44.3869 228.509 44.3869C225.882 44.3869 224.372 45.5183 224.372 47.4818C224.372 48.781 225.002 49.6423 226.233 50.0438C227.142 50.3285 228.101 50.3723 228.952 50.4161C229.496 50.4453 230.004 50.4672 230.398 50.5547C230.963 50.6788 231.221 50.9781 231.221 51.5328C231.221 52.8029 229.74 53.0657 228.494 53.0657C226.949 53.0657 225.832 52.6423 224.988 51.7226L224.809 51.5401L224.63 51.5183L224.236 51.7883L224.172 51.9051V53.4161L224.229 53.5328L224.358 53.6277C224.608 53.8102 225.975 54.708 228.423 54.708C231.794 54.708 232.989 52.7664 232.989 51.1022C232.989 49.6788 232.23 48.8175 230.749 48.5547L230.763 48.5474Z" fill="white"/>
<path d="M173.998 47.5548C173.998 44.7591 171.4 44.3942 169.146 44.3942C167.843 44.3942 166.927 44.4818 166.19 44.5402L165.56 44.5985L165.453 44.6715L165.296 44.9489L165.281 45.0219V45.1095C165.324 47.2336 165.324 51.2482 165.281 54.0584V54.1898L165.324 54.292L165.553 54.5256L165.653 54.5694H166.834L166.934 54.5256L167.163 54.292L167.206 54.1898V54.0584C167.199 53.1387 167.185 51.9781 167.178 50.7956C167.829 50.854 168.416 50.8905 168.917 50.8905C169.074 50.8905 169.21 50.8905 169.36 50.8832C170.405 52.0949 171.379 53.3431 172.116 54.3796L172.209 54.511L172.316 54.5694H173.64L173.776 54.4234V53.2555L173.733 53.1533C172.874 52.1825 172.166 51.3285 171.522 50.4818C173.118 50.0219 173.991 48.9854 173.991 47.5548H173.998ZM167.199 46.1679C167.679 46.0657 168.108 46.0146 168.945 46.0146C171.579 46.0146 172.023 46.4088 172.023 47.5693C172.023 48.3285 172.023 49.2628 168.752 49.2628C168.18 49.2628 167.664 49.2263 167.178 49.1606C167.178 47.9854 167.178 46.8905 167.199 46.1679Z" fill="white"/>
<path d="M185.112 53.8394C183.473 50.6642 182.185 47.9562 180.803 44.781L180.725 44.6058L180.596 44.5183H178.978L178.857 44.6058L178.771 44.781C177.275 48.1095 175.701 51.3285 174.348 53.8394L174.27 53.9854V54.1241L174.484 54.4964L174.599 54.5693H175.78L175.908 54.4891L179.644 46.7737L183.151 54.4818L183.272 54.5693H184.897L185.026 54.4745L185.176 54.0803L185.162 53.9635L185.097 53.8321L185.112 53.8394Z" fill="white"/>
<path d="M203.481 46.3358L203.753 46.1168L203.81 46.0073V44.8905L203.774 44.8029L203.581 44.5474L203.467 44.4891H203.316C200.611 44.5037 197.892 44.5037 195.187 44.4891H195.036L194.929 44.5474L194.736 44.8029L194.707 44.8905V45.9927L194.743 46.0876L194.986 46.3285L195.101 46.3723L195.237 46.3577C196.303 46.2701 197.269 46.2263 198.292 46.2044C198.321 48.3504 198.321 51.5475 198.292 54.0438V54.1533L198.314 54.2409L198.521 54.511L198.636 54.5693H199.867L199.953 54.5255L200.189 54.2993L200.225 54.1971V53.5912C200.218 51.073 200.203 48.8905 200.232 46.2117C201.055 46.2263 202.121 46.2628 203.259 46.3577L203.373 46.3723L203.474 46.3431L203.481 46.3358Z" fill="white"/>
<path d="M49.4147 66H42.6161C42.6161 66 32.2464 41.7372 0.0351562 39.6131V38.4526C0.0351562 38.4526 38.7158 37.0949 50.9319 66H49.4147Z" fill="#EFECE8"/>
<path d="M26.7144 45.5912C37.5565 49.9343 44.6557 59.4161 48.4772 66H50.9319C47.6542 56.1387 43.5464 47.9562 30.2354 41.1898C18.2555 35.0949 6.55469 36.2336 0.0351562 37.6277V39.8905C5.94639 40.0584 15.443 41.0876 26.7073 45.5912H26.7144Z" fill="#E52713"/>
<path d="M51.8557 0.0437965C29.6134 30.9708 0.329197 25.3139 0.329197 25.3139L0 31.9854C28.2179 35.5693 49.5871 5.31387 52.7646 0.547446L51.8485 0.0510958L51.8557 0.0437965Z" fill="#EFECE8"/>
<path d="M51.762 0C48.191 5.35766 40.14 15.3212 31.6953 21.8832C21.1038 30.1095 7.22024 30.5401 0.0351562 30.0803V31.9343C10.6482 34.4672 19.9086 35.6642 33.1409 27.1606C43.6037 20.438 51.1108 8.08029 53.9519 1.18248L51.762 0Z" fill="#80BA27"/>
<path d="M62.8333 6.0146L57.5948 3.16788C38.802 34.4088 57.4588 65.9927 57.4588 65.9927L59.4913 65.9343C42.8668 43.6788 61.0084 9.33577 62.8262 6.0219L62.8333 6.0146Z" fill="#EFECE8"/>
<path d="M49.9662 32.438C51.7482 18.3723 56.3211 8.75182 58.9834 3.91971L57.5664 3.14598C53.5444 7.45985 45.0139 18.1679 44.3985 33.7664C43.7616 50.0876 49.6871 57.6569 57.3875 65.9927H59.4843C55.856 60.6204 48.0841 47.1241 49.9591 32.4307L49.9662 32.438Z" fill="#454444"/>
</g>
<defs>
<clipPath id="clip0_485_2848">
<rect width="233" height="66" fill="white"/>
</clipPath>
</defs>
</svg>
