<svg width="15" height="10" viewBox="0 0 15 10" fill="none" xmlns="http://www.w3.org/2000/svg">
<path d="M13.8924 2.2673C13.7395 1.70711 13.289 1.26486 12.7185 1.11208C11.6756 0.830652 7.50143 0.830652 7.50143 0.830652C7.50143 0.830652 3.32725 0.830652 2.28439 1.10136C1.72201 1.25414 1.26064 1.70711 1.10776 2.2673C0.832031 3.29118 0.832031 5.41667 0.832031 5.41667C0.832031 5.41667 0.832031 7.55287 1.10776 8.56603C1.26064 9.12622 1.71109 9.56847 2.28439 9.72125C3.33817 10.0027 7.50143 10.0027 7.50143 10.0027C7.50143 10.0027 11.6756 10.0027 12.7185 9.73197C13.289 9.58187 13.7395 9.13962 13.8951 8.57943C14.1708 7.55555 14.1708 5.43007 14.1708 5.43007C14.1708 5.43007 14.1817 3.29386 13.8951 2.26998L13.8924 2.2673ZM6.16919 7.37865V3.452L9.63902 5.41399L6.16919 7.37597V7.37865Z" fill="#515151"/>
</svg>
